<svg xmlns="http://www.w3.org/2000/svg" viewBox="0 0 192.13 192.13"><g id="Layer_2" data-name="Layer 2"><g id="Warstwa_1" data-name="Warstwa 1"><path d="M96.06,0A96.06,96.06,0,0,0,28.14,164,96.06,96.06,0,1,0,164,28.14,95.41,95.41,0,0,0,96.06,0Zm-63,33.09a89,89,0,0,1,123.42-2.42L124,63.15h0a1,1,0,0,0-.12-.17l-.13-.14-.15-.14-.15-.11-.18-.11a.71.71,0,0,0-.18-.08l-.19-.08-.22-.05-.15,0h-.09a20.13,20.13,0,0,0-4.32,0c4.12-5.12,7-12,6.23-18.7v-.05a.06.06,0,0,0,0,0,.8.8,0,0,0,0-.15,1,1,0,0,0,0-.23l-.07-.18c0-.06,0-.13-.08-.18L124,42.5l-.1-.14a1.37,1.37,0,0,0-.17-.17.57.57,0,0,0-.11-.11l-.21-.15-.12-.08-.26-.11-.1,0a1.16,1.16,0,0,0-.31-.07l-.08,0h-.12c-6.62-.74-13.35,2-18.44,6a19.13,19.13,0,0,0,2.56-7,25.39,25.39,0,0,0,.32-4.92c0-7.41-2.91-16.08-9.42-21l0,0-.12-.1-.1-.06a1.18,1.18,0,0,0-.19-.11l-.17-.08-.2-.07-.19,0-.2,0h-.4l-.18,0-.21,0-.18.07-.18.08a1.18,1.18,0,0,0-.19.11l-.1.06-.12.1,0,0c-7.75,5.9-10.45,17.07-9.1,25.12a18.74,18.74,0,0,0,2.83,7.41c-5.11-4.09-11.92-6.93-18.61-6.17h-.1l-.12,0a2,2,0,0,0-.26.06l-.15.06-.22.1-.15.09-.18.13a1.36,1.36,0,0,0-.12.12l-.16.16a1.3,1.3,0,0,0-.1.15,1.88,1.88,0,0,0-.12.18,1.42,1.42,0,0,0-.08.18c0,.07-.06.13-.08.19s0,.15,0,.23l0,.14V43a1.64,1.64,0,0,0-.1.45C67,50.19,69.85,57.07,74,62.22a20.13,20.13,0,0,0-4.32,0h-.09l-.16,0-.21.05-.2.08-.16.07-.2.13-.14.1-.16.15-.12.13-.12.17a.86.86,0,0,0-.1.16,6.25,6.25,0,0,0-.16.37,1.89,1.89,0,0,0,0,.23.89.89,0,0,0,0,.14.09.09,0,0,0,0,0v0C67,70.87,69.87,77.72,74,82.84a20.13,20.13,0,0,0-4.32,0h-.09a1,1,0,0,0-.17,0l-.19.05L69,83l-.15.07a1.37,1.37,0,0,0-.2.13l-.13.09-.17.16-.12.13-.12.17a.86.86,0,0,0-.1.16,1.21,1.21,0,0,0-.09.2.87.87,0,0,0-.07.17,1.55,1.55,0,0,0,0,.23.7.7,0,0,0,0,.14.09.09,0,0,0,0,0v.05C67,91.49,69.87,98.33,74,103.45a20.13,20.13,0,0,0-4.32,0h-.09l-.17,0-.19,0-.22.09-.15.07a1.37,1.37,0,0,0-.2.13l-.13.09a1.29,1.29,0,0,0-.17.16l-.12.12-.12.18a1.3,1.3,0,0,0-.1.15c0,.07-.06.14-.09.2s0,.12-.07.17a2,2,0,0,0,0,.24.7.7,0,0,0,0,.14.06.06,0,0,0,0,0v.05a23.17,23.17,0,0,0,2.09,11.95L30.67,156.51A89,89,0,0,1,33.09,33.09Zm77,93c-2.2,1.54-6.39,3.79-10.51,2.16-1.63-4.12.62-8.31,2.16-10.51,4.28-6.07,12-10.23,18.59-10.24C120.32,114.09,116.16,121.81,110.09,126.09Zm10.24,2c0,6.6-4.17,14.32-10.24,18.59-2.2,1.55-6.39,3.79-10.51,2.17-1.63-4.13.62-8.32,2.16-10.51C106,132.29,113.73,128.13,120.33,128.11Zm-10.24-22.64c-2.2,1.54-6.39,3.79-10.51,2.16-1.63-4.12.62-8.31,2.16-10.51,4.28-6.07,12-10.23,18.59-10.24C120.32,93.48,116.16,101.19,110.09,105.47Zm-36.53,18,.43.56-.91-.07Zm16.83,14.85c1.54,2.19,3.79,6.38,2.17,10.51-4.13,1.62-8.32-.62-10.52-2.17-6.07-4.27-10.23-12-10.24-18.59C78.39,128.12,86.11,132.29,90.39,138.36Zm2.17-10.11c-4.13,1.63-8.32-.62-10.52-2.16a24.54,24.54,0,0,1-5.53-5.52l8.36-8.36a24.14,24.14,0,0,1,5.52,5.53C91.93,119.94,94.18,124.13,92.56,128.25ZM71.8,107.5a19.85,19.85,0,0,1,6.63,1.25l-5.38,5.37A19.75,19.75,0,0,1,71.8,107.5Zm0-20.62c6.52,0,14.14,4.09,18.44,10.05l-8.39,8.39C75.89,101,71.81,93.41,71.8,86.88Zm30.66-47.74c-.46,2.74-1.91,7.47-6.39,9.27-4.49-1.8-5.94-6.53-6.4-9.27-1.19-7,1.33-15.09,6-19.74,4.34,3.74,7.08,10.38,7.12,16.84A21.41,21.41,0,0,1,102.46,39.14Zm17.87,6.5c0,6.6-4.17,14.32-10.24,18.59-2.2,1.55-6.39,3.79-10.51,2.17-1.63-4.13.62-8.32,2.16-10.51C106,49.82,113.73,45.65,120.33,45.64ZM90.5,55.36a14.11,14.11,0,0,1,2.71,6.84v1.29a8.26,8.26,0,0,1-.54,2.38c-4.13,1.62-8.32-.62-10.51-2.17-6.07-4.28-10.24-12-10.25-18.59C78.51,45.12,86.23,49.28,90.5,55.36Zm-.11,21.15c1.54,2.19,3.79,6.38,2.17,10.51-4.13,1.62-8.32-.62-10.51-2.17C76,80.57,71.81,72.86,71.8,66.26,78.39,66.27,86.11,70.44,90.39,76.51Zm2.17,31.12a8.25,8.25,0,0,1-3.65.54L93.09,104A8.35,8.35,0,0,1,92.56,107.63ZM100,87.16a3.59,3.59,0,0,1-.43-.14c-1.63-4.13.62-8.32,2.16-10.51,4.28-6.07,12-10.23,18.59-10.25,0,.2,0,.41,0,.61ZM159,159a89,89,0,0,1-123.42,2.42L67.68,129.4c.49,8.4,6,16.51,12,20.69a17.26,17.26,0,0,0,9.86,3.51,12.43,12.43,0,0,0,3.69-.58v22.07a2.86,2.86,0,0,0,5.71,0V153a12.48,12.48,0,0,0,3.69.58,17.31,17.31,0,0,0,9.87-3.51c6.74-4.75,13-14.54,11.89-24.1v0a.06.06,0,0,0,0,0,.8.8,0,0,0,0-.15,1.06,1.06,0,0,0,0-.23,1.34,1.34,0,0,0-.07-.18c0-.06,0-.12-.08-.19L124,125a1,1,0,0,0-.12-.17l-.13-.13s-.1-.11-.15-.15l-.14-.1-.19-.12-.17-.08-.2-.08-.2,0-.17,0h-.09a20.13,20.13,0,0,0-4.32,0c4.12-5.12,7-12,6.23-18.7v-.05a.06.06,0,0,0,0,0,.8.8,0,0,0,0-.15.87.87,0,0,0,0-.22c0-.07,0-.13-.07-.19l-.08-.18-.12-.19-.1-.14-.17-.17a.57.57,0,0,0-.11-.11,1.53,1.53,0,0,0-.21-.14.5.5,0,0,0-.12-.08,1.92,1.92,0,0,0-.25-.12l-.11,0-.3-.07-.09,0h-.11a20.6,20.6,0,0,0-4.3,0c4.12-5.12,7-12,6.23-18.69v-.05a.09.09,0,0,0,0,0,.7.7,0,0,0,0-.14.86.86,0,0,0,0-.23l-.07-.18c0-.07,0-.13-.08-.19l-.12-.18-.1-.15-.15-.15-.14-.13a1.09,1.09,0,0,0-.17-.13l-.15-.09-.22-.1-.15-.06-.26-.06-.12,0h-.1a20,20,0,0,0-4.31,0,30.51,30.51,0,0,0,5-8.9l38.32-38.32A89,89,0,0,1,159,159Z"/></g></g></svg>