<svg xmlns="http://www.w3.org/2000/svg" viewBox="0 0 163.12 160.25"><g id="Layer_2" data-name="Layer 2"><g id="Warstwa_1" data-name="Warstwa 1"><path d="M100.6,74.73a5.67,5.67,0,1,0-5.67-5.67A5.66,5.66,0,0,0,100.6,74.73Z"/><path d="M62.52,74.73a5.67,5.67,0,1,0-5.66-5.67A5.67,5.67,0,0,0,62.52,74.73Z"/><path d="M155.89,41.79c7.32-9.13,9.19-23.53,5.12-39.51A3,3,0,0,0,158.18,0c-14-.38-27.54,4.46-36.29,13a30.8,30.8,0,0,0-9.35,17.13q-12.92-7.6-31-7.63c-12,0-22.37,2.56-31,7.61A30.84,30.84,0,0,0,41.23,13C32.48,4.48,18.91-.34,4.94,0A3,3,0,0,0,2.11,2.28C-2,18.26-.09,32.66,7.23,41.79c5.23,6.5,13.09,10.18,22.9,10.82A90.1,90.1,0,0,0,22.72,74c-5.18,22.79-8.37,41.68,1.42,60,11.55,21.95,29.8,26.25,57.4,26.25S127.38,156,138.93,134c9.79-18.37,6.61-37.26,1.43-60a89.82,89.82,0,0,0-7.42-21.38C142.78,52,150.66,48.3,155.89,41.79ZM11.91,38C6.11,30.8,4.49,19.22,7.4,6c11.55.2,22.51,4.34,29.66,11.27C42,22.09,44.72,27.84,45,34A53.16,53.16,0,0,0,33.51,46.71C23.88,46.79,16.6,43.87,11.91,38Zm120.83,92.71c-7.68,14.6-18.12,22.51-51.2,22.51-25.53,0-41.25-3.59-51.21-22.53-7.95-14.9-6.59-29.67-.78-55.22,6.88-31,23.88-46,52-46s45.11,15.06,52,46C139.34,101.05,140.7,115.82,132.74,130.74Zm-3.18-84A52.78,52.78,0,0,0,118.17,34c.22-6.13,2.93-11.89,7.89-16.71C133.21,10.35,144.17,6.21,155.72,6c2.91,13.21,1.29,24.79-4.51,32C146.51,43.88,139.23,46.78,129.56,46.71Z"/><path d="M71.76,106.8a3.5,3.5,0,0,0-3.5,3.5v8.22a3.5,3.5,0,0,0,7,0V110.3A3.5,3.5,0,0,0,71.76,106.8Z"/><path d="M91.36,106.8a3.5,3.5,0,0,0-3.5,3.5v8.22a3.5,3.5,0,0,0,7,0V110.3A3.5,3.5,0,0,0,91.36,106.8Z"/><path d="M81.56,88.39c-15,0-30.24,8.71-30.24,25.34,0,15.73,13.85,29,30.24,29s30.24-13.28,30.24-29C111.8,97.1,96.59,88.39,81.56,88.39Zm0,48.35c-13.14,0-24.24-10.54-24.24-23,0-13.29,12.57-19.34,24.24-19.34s24.24,6,24.24,19.34C105.8,126.2,94.7,136.74,81.56,136.74Z"/></g></g></svg>