<svg xmlns="http://www.w3.org/2000/svg" viewBox="0 0 118.25 209.66"><defs><style>.cls-1{fill:none;stroke:#000;stroke-miterlimit:10;stroke-width:6px;}</style></defs><g id="Layer_2" data-name="Layer 2"><g id="Warstwa_1" data-name="Warstwa 1"><path d="M73.41,64.59c1.77-18.7,17.36-37.26,34.35-40a3.5,3.5,0,0,0-1.12-6.91C93.16,19.85,80.7,29.94,73.28,42.91V3.5a3.5,3.5,0,0,0-7,0V43.09C58.88,30,46.37,19.86,32.83,17.65a3.5,3.5,0,0,0-1.12,6.91c17,2.77,32.63,21.39,34.36,40.12"/><path d="M93.86,93.29a24.76,24.76,0,0,1,5,18.08,3.5,3.5,0,1,0,6.94.85A31.74,31.74,0,0,0,99.37,89a3.5,3.5,0,1,0-5.51,4.31Z"/><path class="cls-1" d="M115.25,110.78C115.25,165.22,50,206.6,7,206.65,37.83,174.46,26,150.24,26,110.78,26,52,115.25,50.34,115.25,110.78Z"/></g></g></svg>