<svg xmlns="http://www.w3.org/2000/svg" viewBox="0 0 192.13 192.04"><g id="Layer_2" data-name="Layer 2"><g id="Warstwa_1" data-name="Warstwa 1"><path d="M28.14,28.09A96.06,96.06,0,0,0,164,163.94,96.06,96.06,0,0,0,28.14,28.09Zm5,4.95A89.13,89.13,0,0,1,156.5,30.63L121,66.11c-2.91-3.49-5.07-6.53-5-11.07V43.32a9.56,9.56,0,0,0-3-18.63H79.09a9.56,9.56,0,0,0-3,18.63V55c.1,5.09-2.62,8.29-6.06,12.34-4.28,5-9.12,10.74-9.12,21.1v37.74L30.67,156.46A89,89,0,0,1,33.09,33Zm92.13,55.44v8.3c-1.74.68-3.34,1.43-4.9,2.17-4.45,2.12-8.66,4.12-15.85,4.12a31.21,31.21,0,0,1-9.23-1.28l25.94-25.94A20.71,20.71,0,0,1,125.22,88.48ZM66.91,130.12,90.53,106.5a36.68,36.68,0,0,0,13.94,2.57c8.54,0,13.79-2.5,18.43-4.7l2.32-1.08v54.83c0,3.23-.65,3.23-2.21,3.23H69.11c-1.56,0-2.2,0-2.2-3.23ZM113,37.8H81.39a2.91,2.91,0,0,0-1.15.23,3,3,0,0,0-1.15-.23,3.56,3.56,0,1,1,0-7.11h34a3.56,3.56,0,1,1,0,7.11ZM82.09,55V43.8h28V55c-.13,6.84,3.23,11.27,6.73,15.42L88.25,98.88l-.89-.45c-4.63-2.33-9.42-4.73-17-4.73a34.45,34.45,0,0,0-3.5.17V88.48c0-8.16,3.74-12.56,7.69-17.21C78.35,66.85,82.23,62.28,82.09,55ZM66.91,99.91a29.86,29.86,0,0,1,3.5-.21c5.69,0,9.36,1.65,13.37,3.65L66.91,120.22ZM159,159a89.17,89.17,0,0,1-123.42,2.41l25.29-25.29v22c0,7.63,4.46,9.23,8.2,9.23H123c3.75,0,8.21-1.6,8.21-9.23V88.48a26.83,26.83,0,0,0-5.74-16.93l36-36A89,89,0,0,1,159,159Z"/></g></g></svg>