<svg xmlns="http://www.w3.org/2000/svg" xmlns:xlink="http://www.w3.org/1999/xlink" viewBox="0 0 194.58 175.8"><defs><style>.cls-1{fill:url(#linear-gradient);}.cls-2{fill:url(#linear-gradient-2);}.cls-3{fill:url(#linear-gradient-3);}.cls-4{fill:url(#linear-gradient-4);}.cls-5{fill:url(#linear-gradient-5);}</style><linearGradient id="linear-gradient" x1="109.99" y1="150.25" x2="128.54" y2="138.21" gradientUnits="userSpaceOnUse"><stop offset="0" stop-color="#ff33c5"/><stop offset="1" stop-color="#f28e1a"/></linearGradient><linearGradient id="linear-gradient-2" x1="67.15" y1="150.25" x2="85.7" y2="138.21" xlink:href="#linear-gradient"/><linearGradient id="linear-gradient-3" x1="27.92" y1="125.68" x2="187.57" y2="21.99" xlink:href="#linear-gradient"/><linearGradient id="linear-gradient-4" x1="109.59" y1="80.04" x2="123.34" y2="71.11" xlink:href="#linear-gradient"/><linearGradient id="linear-gradient-5" x1="71.3" y1="80.04" x2="85.05" y2="71.11" xlink:href="#linear-gradient"/></defs><g id="Layer_2" data-name="Layer 2"><g id="Warstwa_1" data-name="Warstwa 1"><path class="cls-1" d="M119.26,133.17a11.06,11.06,0,1,0,11.07,11.06A11.07,11.07,0,0,0,119.26,133.17Zm0,16.12a5.06,5.06,0,1,1,5.07-5.06A5.07,5.07,0,0,1,119.26,149.29Z"/><path class="cls-2" d="M76.42,133.17a11.06,11.06,0,1,0,11.06,11.06A11.07,11.07,0,0,0,76.42,133.17Zm0,16.12a5.06,5.06,0,1,1,5.06-5.06A5.07,5.07,0,0,1,76.42,149.29Z"/><path class="cls-3" d="M192.74,30.9c-13-5.44-27.44-5.84-38.73-1.07a36.67,36.67,0,0,0-4.64,2.36c1.58-7.13,2-16.79-.25-29.71a3,3,0,0,0-5.48-1.09c-.16.25-15.39,23.89-36,25.76a86.59,86.59,0,0,0-10.43-.61,87.72,87.72,0,0,0-10.37.6C66.36,25.25,51.1,1.64,50.94,1.39a3,3,0,0,0-5.49,1.09c-2.27,12.92-1.81,22.59-.22,29.72A38.43,38.43,0,0,0,41,30c-11.38-5-26-4.66-39.2.87A3,3,0,0,0,0,34C1.81,48.72,9.49,61.3,20.56,67.7A31,31,0,0,0,44.07,71a84.89,84.89,0,0,0-.44,8.76C43.63,97.55,51,115,54,121.31c-3.57,3.62-9.9,12.13-8.08,25.82,3.53,26.45,28.38,28.67,51.4,28.67,28.94,0,47.62-4.78,51.39-28.67,1.85-13.81-4.46-22.25-8.06-25.84,3-6.35,10.32-23.76,10.32-41.5,0-3.05-.15-6-.43-8.76A31,31,0,0,0,174,67.7c11.08-6.4,18.76-19,20.55-33.67A3,3,0,0,0,192.74,30.9Zm-56-12.23a84.49,84.49,0,0,0,7.46-8c1.84,17.52-2.21,26.83-5.29,31.2a42.76,42.76,0,0,0-18.67-12A59,59,0,0,0,136.77,18.67Zm-86.42-8a84.49,84.49,0,0,0,7.46,8A58.72,58.72,0,0,0,74.29,29.89a42.61,42.61,0,0,0-18.65,12C52.6,37.49,48.52,28.17,50.35,10.66ZM23.56,62.5C14.68,57.37,8.34,47.42,6.31,35.58c11.1-4.08,23-4.13,32.32,0a24.46,24.46,0,0,1,12.8,12,50.89,50.89,0,0,0-6.41,17A25.3,25.3,0,0,1,23.56,62.5Zm109.64,58a3.51,3.51,0,0,0,1.09,4.5c.1.07,9.38,6.75,7.47,21.11-2.68,17-13.9,22.68-44.47,22.68s-42.24-5.91-44.46-22.6C51,132.09,60,125.25,60.32,125a3.5,3.5,0,0,0,1.06-4.47c-.11-.2-10.75-20.69-10.75-40.72C50.63,65.27,54.12,54,61,46.39c7.67-8.53,19.86-12.85,36.24-12.85s28.6,4.32,36.3,12.85c6.9,7.66,10.4,18.89,10.4,33.4C143.94,99.82,133.31,120.31,133.2,120.51ZM171,62.5a25.3,25.3,0,0,1-21.46,2,50.45,50.45,0,0,0-6.4-16.94,24.64,24.64,0,0,1,13.19-12.18c9.23-3.9,21-3.79,31.93.23C186.24,47.42,179.9,57.37,171,62.5Z"/><circle class="cls-4" cx="116.47" cy="75.58" r="8.2"/><path class="cls-5" d="M78.17,83.78a8.2,8.2,0,1,0-8.2-8.2A8.2,8.2,0,0,0,78.17,83.78Z"/></g></g></svg>