<svg xmlns="http://www.w3.org/2000/svg" xmlns:xlink="http://www.w3.org/1999/xlink" viewBox="0 0 123.12 174.51"><defs><style>.cls-1{fill:url(#linear-gradient);}.cls-2{fill:url(#linear-gradient-2);}.cls-3{fill:url(#linear-gradient-3);}</style><linearGradient id="linear-gradient" x1="-6.68" y1="136.71" x2="108.6" y2="61.84" gradientUnits="userSpaceOnUse"><stop offset="0" stop-color="#ff33c5"/><stop offset="1" stop-color="#f28e1a"/></linearGradient><linearGradient id="linear-gradient-2" x1="73.11" y1="80.24" x2="83.75" y2="73.33" xlink:href="#linear-gradient"/><linearGradient id="linear-gradient-3" x1="38.59" y1="80.24" x2="49.23" y2="73.33" xlink:href="#linear-gradient"/></defs><g id="Layer_2" data-name="Layer 2"><g id="Warstwa_1" data-name="Warstwa 1"><path class="cls-1" d="M110.66,84.56c-4.52-29.13-17.39-46-38.32-50.24a76.73,76.73,0,0,0,2.39-10.5c.72-4.89,1.2-13.91-3.63-19.5A12.91,12.91,0,0,0,61,0a12.62,12.62,0,0,0-9.88,4.33c-5.18,6-4.43,15.62-3.86,19.49a76.37,76.37,0,0,0,2.4,10.53C28.71,38.63,15.84,55.47,11.33,84.56,4.69,127.39.16,144.91.11,145.08a3.55,3.55,0,0,0,.44,2.77,3.53,3.53,0,0,0,2.34,1.56C3.14,149.46,28,154,59.1,174a3.53,3.53,0,0,0,1.89.56,3.48,3.48,0,0,0,1.89-.56c31-19.85,57.07-24.49,57.33-24.53a3.52,3.52,0,0,0,2.74-4.54C122.89,144.7,117.27,127.24,110.66,84.56Zm-55-76.31A6.63,6.63,0,0,1,61,6a6.92,6.92,0,0,1,5.57,2.25C68.91,11,69.75,16.46,68.8,23c-.86,5.87-2.67,11.37-4.76,17.73-1,3-2,6.16-3.05,9.64-1-3.48-2.07-6.65-3.05-9.64C55.85,34.32,54.05,28.82,53.19,23,52.27,16.7,53.21,11.07,55.65,8.25ZM68.06,143.06c3.22,6.83,3.47,13,.7,17.38A9.48,9.48,0,0,1,61,165a9.48,9.48,0,0,1-7.77-4.58c-2.77-4.38-2.52-10.55.71-17.38,3-6.43,5.4-11.48,7.06-15.05C62.65,131.58,65,136.63,68.06,143.06ZM53,99.71H69L61,114.6Zm23.13,58.56c1-4.21,1-10.14-2.6-17.77C67.55,127.93,65.25,123,64.37,121L76.7,98.13a3,3,0,0,0-2.64-4.42H47.92a3,3,0,0,0-2.64,4.42L57.62,121c-.89,2-3.18,7-9.12,19.52-3.58,7.59-3.63,13.5-2.61,17.71C28.12,149,14.08,144.86,7.74,143.31c1.62-7,5.42-24.85,10.51-57.68,4.08-26.37,15.09-41,33.51-44.55l.48,1.48A194.59,194.59,0,0,1,58.06,63a3,3,0,0,0,5.86,0,198,198,0,0,1,5.82-20.42l.49-1.48c18.41,3.48,29.42,18.15,33.51,44.56,5.05,32.64,9.48,50.53,11.46,57.69A175.62,175.62,0,0,0,76.08,158.27Z"/><path class="cls-2" d="M78.43,70.44a6.35,6.35,0,1,0,6.35,6.35A6.35,6.35,0,0,0,78.43,70.44Z"/><circle class="cls-3" cx="43.91" cy="76.79" r="6.35"/></g></g></svg>