<svg xmlns="http://www.w3.org/2000/svg" viewBox="0 0 189.78 222.67"><defs><style>.cls-1,.cls-9{fill:#fff;stroke-linecap:round;stroke-linejoin:round;}.cls-1{stroke:#fff;stroke-width:15px;}.cls-2{fill:#583e37;}.cls-3{fill:#eaca7c;}.cls-4{fill:#d5b36d;}.cls-5{fill:#705b57;}.cls-6{fill:#db9fa0;}.cls-7{fill:#a03856;}.cls-8{fill:#c75a5f;}.cls-9{stroke:#583e37;stroke-width:4.08px;}.cls-10{fill:#c03d70;}</style></defs><g id="Layer_2" data-name="Layer 2"><g id="OBJECTS"><path class="cls-1" d="M182.19,116.66a54.48,54.48,0,0,0-55.47-50.58,49.09,49.09,0,0,0-13.19,2.27c-.43.13-.86.28-1.28.42l-.23.09-.08,0-.34.12c.27-1.06.51-2.13.71-3.22A49.3,49.3,0,1,0,35.58,97.2a50.72,50.72,0,0,0-23.9,24.24l0,.06c-.44,1-.85,2-1.22,3l0,.06c-.17.47-.34.93-.5,1.41l0,.14c-.33,1-.63,2-.88,3l-.06.22c-.11.43-.21.86-.31,1.3l-.06.27c-.22,1-.4,2-.55,3l0,.35c-.06.4-.11.79-.15,1.18l0,.39c-.1,1-.18,2-.22,3l0,.42c0,.38,0,.76,0,1.14v.45c0,.5,0,1,0,1.52a46.54,46.54,0,0,0,10.55,27.91,51.57,51.57,0,0,0,24,16.41l.91.29,1,.31.08,0c.33.1.67.19,1,.27l.13,0,1,.26.1,0,1.06.25c1.42.31,2.88.57,4.33.78l.21,0,.8.09.44.06.7.07.54.05.68.06.57,0,.64,0,.64,0,.6,0,.7,0H60c.89,0,1.79-.05,2.7-.1l.46,0,.94-.07.41,0,.15,0,.86-.08.57-.07.83-.11.5-.07.19.35.17.3c.12.21.24.43.37.63l.22.38.36.59.22.35.47.73.16.24.55.81.24.33.41.58.25.33.44.58.22.29.67.83.19.23c.16.2.33.41.51.61l.26.31.48.54.27.3c.19.2.37.41.57.61l.17.18c.24.26.49.51.75.78l.25.25.53.52.3.28.54.51.26.24.8.71.17.15.65.56.32.26.57.46.32.25.65.5.22.17.88.65.26.18c.22.16.43.31.66.46l.32.22.62.41.32.21.91.58.1.06.86.51.33.19.66.37.34.2.74.39.26.14,1,.5.26.12.77.37.35.16c.23.11.47.22.72.32l.33.15.91.39.13.05,1,.41.34.13L95,212l.37.14.8.27.29.1,1.06.33.23.07.89.26.37.1.82.22.33.08,1,.23.17,0,1.13.25.32.06.84.16.39.07.83.14.34.05,1.15.17.14,0,1,.12.38,0,.85.08.37,0,.94.07h.26l1.17.06h.32l.91,0h1.63l1.21,0c28.71-1,51.3-23.74,50.36-50.69,0-.4,0-.8-.06-1.2l0-.39c0-.27,0-.53-.06-.81l0-.44c0-.25,0-.49-.07-.72l-.06-.51c0-.23-.06-.46-.09-.67s-.05-.34-.07-.49-.07-.47-.11-.7l-.08-.48c0-.24-.09-.47-.13-.71l-.09-.44a3.4,3.4,0,0,0-.07-.34l.23-.18.08-.06.87-.74,0,0,.88-.78c.86-.78,1.68-1.59,2.45-2.39A47.11,47.11,0,0,0,182.19,116.66Z"/><path class="cls-2" d="M115.49,215.14l-1.21,0h-1.63l-.91,0h-.32l-1.17-.06H110l-.94-.07-.37,0-.85-.08-.38,0-1-.12-.14,0-1.15-.17-.34-.05-.83-.14-.39-.07-.84-.16-.32-.06-1.13-.25-.17,0-1-.23-.33-.08-.82-.22-.37-.1-.89-.26-.23-.07-1.06-.33-.29-.1-.8-.27L95,212l-.75-.27-.34-.13-1-.41-.13-.05-.91-.39-.33-.15c-.25-.1-.49-.21-.72-.32l-.35-.16-.77-.37-.26-.12-1-.5-.26-.14-.74-.39-.34-.2-.66-.37-.33-.19-.86-.51-.1-.06-.91-.58-.32-.21-.62-.41-.32-.22c-.23-.15-.44-.3-.66-.46l-.26-.18-.88-.65-.22-.17-.65-.5L80,203.6l-.57-.46-.32-.26-.65-.56-.17-.15-.8-.71-.26-.24-.54-.51-.3-.28-.53-.52-.25-.25c-.26-.27-.51-.52-.75-.78l-.17-.18c-.2-.2-.38-.41-.57-.61l-.27-.3-.48-.54-.26-.31c-.18-.2-.35-.41-.51-.61l-.19-.23-.67-.83-.22-.29-.44-.58-.25-.33-.41-.58-.24-.33-.55-.81-.16-.24-.47-.73-.22-.35-.36-.59-.22-.38c-.13-.2-.25-.42-.37-.63l-.17-.3-.19-.35-.5.07-.83.11-.57.07-.86.08-.15,0-.41,0-.94.07-.46,0c-.91,0-1.81.09-2.7.1h-1.8l-.7,0-.6,0-.64,0-.64,0-.57,0-.68-.06-.54-.05-.7-.07-.44-.06-.8-.09-.21,0c-1.45-.21-2.91-.47-4.33-.78l-1.06-.25-.1,0-1-.26-.13,0c-.32-.08-.66-.17-1-.27l-.08,0-1-.31-.91-.29a51.57,51.57,0,0,1-24-16.41A46.54,46.54,0,0,1,7.53,142.28c0-.51,0-1,0-1.52v-.45c0-.38,0-.76,0-1.14l0-.42c0-1,.12-2,.22-3l0-.39c0-.39.09-.78.15-1.18l0-.35c.15-1,.33-2,.55-3l.06-.27c.1-.44.2-.87.31-1.3L9,129c.25-1,.55-2,.88-3l0-.14c.16-.48.33-.94.5-1.41l0-.06c.37-1,.78-2,1.22-3l0-.06C19.61,104,37.74,92.29,57.88,91.59a54.72,54.72,0,0,1,25.95,5.48A46.43,46.43,0,0,1,93.92,80.6c.32-.34.64-.67,1-1l.32-.31.7-.66.38-.36.65-.58.4-.35.7-.59.36-.29c.3-.25.6-.48.91-.72l.16-.12c.38-.29.75-.56,1.12-.82l.3-.21.82-.57.39-.25.77-.5.41-.25c.26-.16.52-.32.79-.47l.38-.23.94-.52.24-.13c.4-.22.81-.43,1.22-.63L107,71l1-.5.38-.17.86-.38.42-.18.85-.34.41-.16,1-.35.08,0,.23-.09c.42-.14.85-.29,1.28-.42a49.09,49.09,0,0,1,13.19-2.27,54.48,54.48,0,0,1,55.47,50.58,47.11,47.11,0,0,1-12.76,35.72c-.77.8-1.59,1.61-2.45,2.39l-.88.78,0,0-.87.74-.08.06-.23.18a3.4,3.4,0,0,1,.07.34l.09.44c0,.24.09.47.13.71l.08.48c0,.23.07.46.11.7s0,.32.07.49.06.44.09.67l.06.51c0,.23,0,.47.07.72l0,.44c0,.28.05.54.06.81l0,.39c0,.4,0,.8.06,1.2C166.79,191.4,144.2,214.14,115.49,215.14Zm-26-14.88.74.44.28.16.56.32.27.15.63.34.21.11.84.43.22.1.65.31.3.14.6.27.27.12.79.34.13,0,.86.34.28.11.63.23.31.11.67.23.25.08.92.29.17,0,.77.23.28.07.69.19.32.08.78.19.15,0,1,.21.26.05.72.14.33.06.71.12.29.05,1,.14h.15l.85.11.32,0,.72.07.32,0c.27,0,.53.05.8.06l.22,0,1,0H112l.78,0h1.4l1,0c24.17-.84,43.19-19.76,42.41-42.17,0-.33,0-.66,0-1l0-.32c0-.22,0-.44-.05-.66l0-.39-.06-.58c0-.14,0-.28,0-.41s-.05-.36-.07-.55,0-.28-.06-.4-.06-.39-.09-.57l-.07-.4c0-.2-.07-.39-.11-.59l-.07-.37c0-.21-.09-.43-.14-.66l-.06-.28c-.07-.29-.14-.59-.22-.9l-.94-3.46,2.35-1.67.5-.36.07-.05h0l.71-.54,2.57,3.21-2.51-3.26q.36-.27.72-.57l.07-.06.68-.57.07-.05.68-.61c.71-.65,1.39-1.31,2-2A39,39,0,0,0,174,117.15,46.26,46.26,0,0,0,127,74.3a41.16,41.16,0,0,0-11,1.89c-.36.11-.72.23-1.07.36l-.25.09-.79.29-.34.13-.7.29-.34.14-.71.31-.32.14-.84.41-.12.05-1,.54-.2.11-.77.43-.31.18-.65.39-.33.2-.64.41-.32.21-.68.47-.24.17-.91.67-.16.12c-.23.17-.48.37-.72.57l-.3.25c-.19.15-.39.31-.58.48l-.32.28-.54.49-.32.29q-.28.25-.57.54l-.26.25-.81.82a38.42,38.42,0,0,0-9.54,17.82L89,109.7l-4.89-3c-1.11-.69-2.27-1.34-3.46-1.94l-.08,0a46.43,46.43,0,0,0-22.44-4.84c-17.05.59-32.36,10.42-39,25.05l0,0q-.55,1.22-1,2.4l0,.06c-.15.39-.28.77-.41,1.16l0,.13c-.27.8-.51,1.63-.72,2.45l-.05.17c-.09.35-.17.7-.25,1.06l0,.22c-.18.82-.33,1.65-.45,2.47l0,.28c-.05.32-.09.64-.13,1l0,.31c-.09.83-.15,1.66-.19,2.49v.34c0,.32,0,.63,0,.94v.37c0,.41,0,.83,0,1.25.59,16.81,12.51,31.69,29.67,37l.12,0,.76.22.09,0,.82.23.09,0,.86.22h.06l.91.22h.06c1.17.26,2.41.48,3.64.65l.17,0,.69.08.37,0,.6.06.47,0,.56.05.51,0,.52,0,.56,0h.5l.61,0h1.52c.79,0,1.54,0,2.31-.09l.39,0q.42,0,.81-.06l.47,0,.73-.07.49-.06.71-.09.47-.07.71-.11.48-.08.71-.13.12,0,.32-.06,3.48-.71,1.46,3.18.25.51.16.33.27.53.14.27c.14.26.27.51.42.76l.14.24.31.55.19.31c.09.16.19.32.29.48l.19.3c.12.2.25.4.39.61l.13.2.46.66.19.27.34.48.2.28L78,190l.18.23c.18.24.36.47.55.69l.16.2c.14.17.28.34.43.5l.21.26.4.44.24.27.47.51.15.16.61.63.21.21.45.44.24.23.46.43.22.2.67.6.15.13.55.46.27.23.47.38.27.21.53.42.19.14.74.54.22.16.54.37.27.19.54.35.27.18.78.49.06,0Z"/><path class="cls-3" d="M107.53,138.79c.86,24.72-19.91,45.51-46.39,46.43s-48.64-18.36-49.5-43.08S31.54,96.63,58,95.7,106.67,114.07,107.53,138.79Z"/><path class="cls-2" d="M61.17,186c-26.88.94-49.46-18.74-50.34-43.87S31.11,95.84,58,94.9s49.46,18.74,50.34,43.87S88.05,185.09,61.17,186ZM58.05,96.51c-26,.91-46.45,21.36-45.6,45.6s22.67,43.21,48.67,42.31,46.45-21.36,45.6-45.6S84.05,95.6,58.05,96.51Z"/><path class="cls-4" d="M82.46,101a27.12,27.12,0,0,0-.41,5.17,53.7,53.7,0,0,0,.91,8.38c.44,2.64.73,5.41-.25,8-1.11,2.94-3.54,5.24-5.73,7.41s-4.71,4.47-7,6.81a34.08,34.08,0,0,0-6,7.88,41.92,41.92,0,0,0-3.15,9.21c-.39,1.55-.75,3.1-1.17,4.64s-.85,2.78-1.28,4.17c-.82,2.59-1.54,5.21-2.5,7.76-1.79,4.79-4.59,9.54-9.45,11.72a19.25,19.25,0,0,1-2.27.85,51,51,0,0,0,17,2.25c26.48-.92,47.25-21.71,46.39-46.43C107,122.32,96.92,108.27,82.46,101Z"/><path class="cls-4" d="M77.49,176.31c-17.76,4.89-31,3-47.33-9.31-13.29-10-13.57-32.53-13.51-35.94.06-3.75.38-7.48.73-11.21,0-.19,0-.39.05-.59a42.34,42.34,0,0,0-5.79,22.88c.86,24.72,23,44,49.5,43.08a49.26,49.26,0,0,0,36.42-17.55A82.87,82.87,0,0,1,77.49,176.31Z"/><path class="cls-5" d="M30.1,128.57c1.41,1.89.36,3.69-1.44,5s-3.65,1.7-5.05-.2-2.62-5.27-.83-6.61S28.7,126.68,30.1,128.57Z"/><path class="cls-2" d="M26,135.22a3.3,3.3,0,0,1-2.84-1.51c-1.57-2.1-2.82-5.76-.73-7.33a3.73,3.73,0,0,1,2.15-.66,7.66,7.66,0,0,1,5.89,2.55,3.26,3.26,0,0,1,.55,3.2A5.76,5.76,0,0,1,29,134,5.38,5.38,0,0,1,26,135.22Zm-1.38-8.48a3,3,0,0,0-1.58.46c-1.45,1.08-.39,4.12.94,5.9,1.09,1.46,2.51,1.45,4.34.09a4.83,4.83,0,0,0,1.74-2.07,2.23,2.23,0,0,0-.41-2.24A6.75,6.75,0,0,0,24.66,126.74Z"/><path class="cls-5" d="M57.78,166.41c2.21.37,2.67,2.31,2.31,4.4s-1.39,3.57-3.6,3.19-5.27-1.91-4.91-4S55.57,166,57.78,166.41Z"/><path class="cls-2" d="M57.28,174.54a4.39,4.39,0,0,1-.87-.06c-2.46-.42-5.73-2.11-5.31-4.56.36-2.14,3.53-4,5.9-4a3.94,3.94,0,0,1,.86.05c2.2.37,3.19,2.18,2.71,5C60.07,173.83,58.51,174.5,57.28,174.54ZM57,166.85c-2,.07-4.71,1.6-5,3.23s2.43,3.09,4.51,3.44c1.66.28,2.68-.64,3-2.79.26-1.56.14-3.49-1.92-3.84A2.79,2.79,0,0,0,57,166.85Z"/><path class="cls-5" d="M97.83,131.32c-.71,1.7-2.34,1.71-4,1s-2.6-1.78-1.89-3.48,2.5-3.87,4.12-3.2S98.54,129.61,97.83,131.32Z"/><path class="cls-2" d="M95.8,133.17a5,5,0,0,1-2.08-.44c-2.07-.87-2.82-2.29-2.11-4,.59-1.41,2.08-3.52,3.79-3.58a2.07,2.07,0,0,1,.85.16c1.86.77,2.74,4.28,2,6.16A2.57,2.57,0,0,1,95.8,133.17ZM95.43,126c-1.14,0-2.46,1.6-3.08,3.08-.2.48-.8,1.93,1.67,3a4.31,4.31,0,0,0,1.76.38,1.75,1.75,0,0,0,1.68-1.21c.62-1.47-.1-4.52-1.52-5.11A1.25,1.25,0,0,0,95.43,126Z"/><path class="cls-5" d="M85.78,158.89c-.23,1.65-1.66,2-3.23,1.8s-2.69-1-2.45-2.62,1.32-4,2.89-3.74S86,157.23,85.78,158.89Z"/><path class="cls-2" d="M83.5,161.11a5.94,5.94,0,0,1-1-.06,3.73,3.73,0,0,1-2.09-.87,2.33,2.33,0,0,1-.66-2.16c.22-1.54,1.22-4,3-4.06a1.22,1.22,0,0,1,.33,0,3.54,3.54,0,0,1,2.33,1.91,4.94,4.94,0,0,1,.77,3.05A2.46,2.46,0,0,1,83.5,161.11Zm-.76-6.43c-1.17,0-2.08,2-2.28,3.44a1.64,1.64,0,0,0,.44,1.54,3.08,3.08,0,0,0,1.7.68,5.32,5.32,0,0,0,.87,0c1.17,0,1.81-.55,2-1.55a4.32,4.32,0,0,0-.68-2.58,3,3,0,0,0-1.81-1.57Z"/><path class="cls-5" d="M33.42,159c.68,1.12,0,2.05-1.06,2.69s-2.1.73-2.78-.38-1.15-3-.09-3.69S32.75,157.92,33.42,159Z"/><path class="cls-2" d="M31,162.48a1.82,1.82,0,0,1-1.67-1c-.75-1.24-1.24-3.33,0-4.07a1.84,1.84,0,0,1,.93-.25,4.3,4.3,0,0,1,3.4,1.72c.66,1.11.24,2.24-1.17,3.08A3,3,0,0,1,31,162.48Zm-.72-4.75a1.46,1.46,0,0,0-.66.17c-.85.52-.44,2.25.2,3.3.52.86,1.31.93,2.38.29.79-.48,1.6-1.26,1-2.31A3.72,3.72,0,0,0,30.29,157.73Z"/><path class="cls-5" d="M101.9,142.65c-.24,1.17-1.27,1.38-2.38,1.16s-1.87-.79-1.64-2,1.09-2.78,2.2-2.55S102.13,141.48,101.9,142.65Z"/><path class="cls-2" d="M100.35,144.15a4,4,0,0,1-.88-.09,2.6,2.6,0,0,1-1.46-.7,1.66,1.66,0,0,1-.38-1.56c.21-1.06,1-2.74,2.2-2.78a1,1,0,0,1,.3,0c1.28.26,2.28,2.37,2,3.66A1.74,1.74,0,0,1,100.35,144.15Zm-.5-4.62c-.78,0-1.5,1.25-1.72,2.37a1.19,1.19,0,0,0,.25,1.11,2.32,2.32,0,0,0,1.19.55,3.55,3.55,0,0,0,.77.07,1.21,1.21,0,0,0,1.3-1c.2-1-.64-2.86-1.61-3Z"/><path class="cls-5" d="M62,106.54c.25,2-1.32,2.94-3.25,3.17s-3.48-.29-3.73-2.32.29-5.11,2.22-5.34S61.73,104.51,62,106.54Z"/><path class="cls-2" d="M58.14,110.2c-2.08.08-3.35-.9-3.58-2.75-.28-2.26.35-5.57,2.6-5.84s5,2.7,5.26,4.87c.24,2-1.08,3.36-3.64,3.67A4.72,4.72,0,0,1,58.14,110.2Zm-.74-7.72h-.13c-1.56.19-2.06,2.94-1.83,4.85.17,1.39,1,2,2.67,2a5.54,5.54,0,0,0,.56,0c1.44-.17,3.1-.78,2.87-2.68S59,102.42,57.4,102.48Z"/><path class="cls-6" d="M45.11,142a4.46,4.46,0,1,1-6.19-1.22A4.47,4.47,0,0,1,45.11,142Z"/><path class="cls-2" d="M46.62,134.34a4.15,4.15,0,1,1-5.76-1.13A4.15,4.15,0,0,1,46.62,134.34Z"/><path class="cls-6" d="M78.82,124.87a4.46,4.46,0,1,1-6.28-.51A4.47,4.47,0,0,1,78.82,124.87Z"/><path class="cls-2" d="M71.61,123a4.15,4.15,0,1,1-5.85-.48A4.15,4.15,0,0,1,71.61,123Z"/><path class="cls-2" d="M60.23,143.3a6.59,6.59,0,0,1-2.66-.47.81.81,0,0,1,.65-1.48,4.2,4.2,0,0,0,5.68-2.47.8.8,0,1,1,1.53.5,6.26,6.26,0,0,1-2.91,3.35A5.67,5.67,0,0,1,60.23,143.3Z"/><path class="cls-2" d="M67.7,141.69a.87.87,0,0,1-.35-.07c-4.12-1.76-4.54-4.76-4.55-4.88a.81.81,0,0,1,1.6-.21c0,.11.38,2.24,3.59,3.61a.8.8,0,0,1,.42,1.06A.81.81,0,0,1,67.7,141.69Z"/><path class="cls-2" d="M56.3,145.81a.81.81,0,0,1-.57-.2.8.8,0,0,1-.07-1.13c.07-.09,1.43-1.76.34-5.08a.81.81,0,1,1,1.54-.5c1.4,4.26-.58,6.55-.67,6.64A.77.77,0,0,1,56.3,145.81Z"/><path class="cls-2" d="M61.17,186c-26.88.94-49.46-18.74-50.34-43.87S31.11,95.84,58,94.9s49.46,18.74,50.34,43.87S88.05,185.09,61.17,186ZM58.05,96.51c-26,.91-46.45,21.36-45.6,45.6s22.67,43.21,48.67,42.31,46.45-21.36,45.6-45.6S84.05,95.6,58.05,96.51Z"/><path class="cls-3" d="M166.45,149.54c-17,17.93-46.43,17.67-65.63-.59s-21-47.58-3.92-65.51,46.42-17.67,65.63.59S183.49,131.61,166.45,149.54Z"/><path class="cls-2" d="M136.51,163.6a51.18,51.18,0,0,1-52-47.48,43.47,43.47,0,0,1,42.37-46.74,51.18,51.18,0,0,1,52.05,47.48,43.47,43.47,0,0,1-42.37,46.74ZM126.89,71a41.85,41.85,0,0,0-40.82,45A49.55,49.55,0,0,0,136.46,162a41.85,41.85,0,0,0,40.81-45A49.55,49.55,0,0,0,126.89,71Z"/><path class="cls-4" d="M163.52,149.21a49.08,49.08,0,0,0-7.73-16.13,33.65,33.65,0,0,0-12-9.67,70.87,70.87,0,0,0-14.95-5.76c-6-1.42-27-2.05-29.84-2.67a11.28,11.28,0,0,1-5.73-2.68,6.92,6.92,0,0,1-1.87-5.79c.3-2.86,3.52-8.67,4.58-11.34,3.71-9.33,10.75-17,18.84-22.91A42.34,42.34,0,0,0,96.9,83.44c-17,17.93-15.29,47.26,3.92,65.51,18.39,17.48,46.11,18.46,63.39,2.77C164,150.88,163.77,150,163.52,149.21Z"/><path class="cls-5" d="M103.19,105.39c-.37,2.39-2.45,2.91-4.71,2.55s-3.86-1.44-3.49-3.83,2-5.7,4.24-5.35S103.56,103,103.19,105.39Z"/><path class="cls-2" d="M99.93,108.57a8.23,8.23,0,0,1-1.53-.11,5.42,5.42,0,0,1-3-1.3,3.37,3.37,0,0,1-.9-3.13c.34-2.2,1.82-5.73,4.33-5.82a4.07,4.07,0,0,1,.5,0,5.2,5.2,0,0,1,3.34,2.81,7.26,7.26,0,0,1,1.06,4.42A3.56,3.56,0,0,1,99.93,108.57Zm-1.08-9.31c-1.69.06-3,2.9-3.34,4.93a2.38,2.38,0,0,0,.6,2.22,4.43,4.43,0,0,0,2.45,1,7.82,7.82,0,0,0,1.33.09c1.65-.06,2.56-.78,2.78-2.21a6.25,6.25,0,0,0-.92-3.74,4.25,4.25,0,0,0-2.6-2.29A1,1,0,0,0,98.85,99.26Z"/><path class="cls-5" d="M132.75,143c1.31,1.89.22,3.61-1.56,4.85s-3.61,1.54-4.92-.35-2.39-5.22-.6-6.46S131.44,141.12,132.75,143Z"/><path class="cls-2" d="M128.69,149.36a3.22,3.22,0,0,1-2.83-1.56c-1.46-2.1-2.57-5.7-.47-7.16a3.55,3.55,0,0,1,1.93-.57,7.51,7.51,0,0,1,5.84,2.66,3.19,3.19,0,0,1,.43,3.13,5.68,5.68,0,0,1-2.12,2.41A5.34,5.34,0,0,1,128.69,149.36Zm-1.33-8.3a2.64,2.64,0,0,0-1.41.4c-1.44,1-.51,4,.73,5.77,1,1.46,2.4,1.49,4.22.22a4.69,4.69,0,0,0,1.77-2,2.21,2.21,0,0,0-.33-2.2A6.62,6.62,0,0,0,127.36,141.06Z"/><path class="cls-5" d="M162.62,145.11c-1.75.7-2.93-.49-3.6-2.15s-.57-3.18,1.19-3.88,4.62-1,5.29.71S164.38,144.4,162.62,145.11Z"/><path class="cls-2" d="M161.72,145.72c-1.29.05-2.39-.88-3.08-2.61-.86-2.14-.35-3.7,1.41-4.41a8.23,8.23,0,0,1,2.67-.57c1.63,0,2.75.48,3.16,1.51.77,1.91-1.16,5.07-3.1,5.85A3.21,3.21,0,0,1,161.72,145.72Zm1-6.77a7.25,7.25,0,0,0-2.39.51c-.49.19-2,.79-1,3.35.39,1,1.11,2.13,2.29,2.09a2.55,2.55,0,0,0,.78-.17c1.52-.61,3.24-3.33,2.65-4.79C164.75,139,163.48,138.93,162.75,139Z"/><path class="cls-5" d="M106.67,135.83c-1.38,1-2.68.24-3.64-1.07s-1.22-2.65.16-3.67,3.84-1.88,4.81-.57S108.05,134.82,106.67,135.83Z"/><path class="cls-2" d="M105.46,136.66a3.37,3.37,0,0,1-2.73-1.68,3.81,3.81,0,0,1-.87-2.16,2.44,2.44,0,0,1,1.11-2,6.73,6.73,0,0,1,3.39-1.3,2.16,2.16,0,0,1,1.93.81c1.11,1.5.13,4.71-1.4,5.83A2.48,2.48,0,0,1,105.46,136.66Zm.93-6.43a6,6,0,0,0-3,1.16,1.7,1.7,0,0,0-.81,1.42,3.1,3.1,0,0,0,.73,1.73,2.78,2.78,0,0,0,2.11,1.38,1.78,1.78,0,0,0,1-.39c1.2-.88,2.09-3.65,1.25-4.79A1.47,1.47,0,0,0,106.39,130.23Z"/><path class="cls-5" d="M129.43,84c-.34,1.3-1.51,1.47-2.74,1.15s-2-1-1.71-2.3,1.4-3,2.63-2.72S129.76,82.68,129.43,84Z"/><path class="cls-2" d="M127.79,85.55a4.18,4.18,0,0,1-1.17-.15c-1.57-.4-2.25-1.35-1.92-2.65.3-1.13,1.25-2.93,2.56-3a1.5,1.5,0,0,1,.42,0c1.41.37,2.4,2.8,2,4.23A1.92,1.92,0,0,1,127.79,85.55Zm-.51-5.19c-.84,0-1.71,1.34-2,2.53-.09.37-.38,1.46,1.51,2a3.33,3.33,0,0,0,1,.13,1.34,1.34,0,0,0,1.39-1.07c.29-1.12-.54-3.24-1.61-3.51A.58.58,0,0,0,127.28,80.36Z"/><path class="cls-5" d="M170.08,114c-1,.67-1.92.06-2.56-.9s-.76-1.95.26-2.62,2.81-1.18,3.45-.21S171.1,113.36,170.08,114Z"/><path class="cls-2" d="M169.27,114.58a2.37,2.37,0,0,1-2-1.31c-.81-1.25-.69-2.3.33-3a5,5,0,0,1,2.32-.79,1.6,1.6,0,0,1,1.5.65,2.59,2.59,0,0,1,.07,2.21,3.56,3.56,0,0,1-1.3,1.89A1.88,1.88,0,0,1,169.27,114.58ZM170,110a4.32,4.32,0,0,0-2,.71c-.29.18-1.16.75-.19,2.24a2,2,0,0,0,1.51,1.07,1.37,1.37,0,0,0,.68-.24,3.16,3.16,0,0,0,1.09-1.62,2.17,2.17,0,0,0,0-1.75A1.1,1.1,0,0,0,170,110Z"/><path class="cls-5" d="M162.35,99.47c-1.31,1.63-3.1,1.14-4.65-.11s-2.29-2.75-1-4.39,3.94-3.45,5.5-2.21S163.66,97.83,162.35,99.47Z"/><path class="cls-2" d="M160.47,101a4.87,4.87,0,0,1-3.06-1.24c-2-1.59-2.36-3.38-1-5,1-1.3,2.91-2.74,4.54-2.79a2.39,2.39,0,0,1,1.6.5c1.79,1.43,1.65,5.54.21,7.35A3,3,0,0,1,160.47,101Zm.46-8.15c-1.28,0-2.91,1.26-3.85,2.45-.37.45-1.48,1.85.9,3.75a3.9,3.9,0,0,0,2.45,1,2,2,0,0,0,1.57-.87c1.13-1.42,1.3-5-.06-6.06A1.41,1.41,0,0,0,160.93,92.81Z"/><path class="cls-6" d="M122.78,102.09a4.46,4.46,0,1,1-3.46-5.27A4.46,4.46,0,0,1,122.78,102.09Z"/><path class="cls-2" d="M129.32,97.79a4.15,4.15,0,1,1-3.22-4.9A4.13,4.13,0,0,1,129.32,97.79Z"/><path class="cls-6" d="M158.63,114.14a4.46,4.46,0,1,1-4-4.84A4.45,4.45,0,0,1,158.63,114.14Z"/><path class="cls-2" d="M155,107.65a4.15,4.15,0,1,1-3.76-4.51A4.15,4.15,0,0,1,155,107.65Z"/><path class="cls-2" d="M136.51,115.3a5.85,5.85,0,0,1-2-.29,6.27,6.27,0,0,1-3.54-3.46.82.82,0,0,1,.47-1,.81.81,0,0,1,1,.47,4.19,4.19,0,0,0,5.75,2.32.8.8,0,0,1,1.08.37.81.81,0,0,1-.37,1.08A6.39,6.39,0,0,1,136.51,115.3Z"/><path class="cls-2" d="M136.51,163.6a51.18,51.18,0,0,1-52-47.48,43.47,43.47,0,0,1,42.37-46.74,51.18,51.18,0,0,1,52.05,47.48,43.47,43.47,0,0,1-42.37,46.74ZM126.89,71a41.85,41.85,0,0,0-40.82,45A49.55,49.55,0,0,0,136.46,162a41.85,41.85,0,0,0,40.81-45A49.55,49.55,0,0,0,126.89,71Z"/><path class="cls-3" d="M161.74,164.59c.86,24.72-19.91,45.51-46.39,46.43s-48.64-18.37-49.5-43.09,19.9-45.51,46.38-46.43S160.87,139.87,161.74,164.59Z"/><path class="cls-4" d="M149.67,136.38c2.47,5.51,8.83,12.73,4.84,15.38-2.51,1.66-6.87-1.21-9.42,6.31l1.21,2s2.41,2.84,8.34,5.25c2.57,1-1.93,12.83-3.44,16.12-4.07,8.91-12,12.9-15.83,15.94-.63.51-1.12-.06-1.88.3-.17-2.19,1-6-2.7-8.14A14.08,14.08,0,0,0,123,200c-.56,3.71-9.92,4.42-11.66.79-1.44-3,.13-4.41-6.52-8.31l-3.88,5.75a8.62,8.62,0,0,0,.14,4.08,42.91,42.91,0,0,1-17-7.73l-.08,0A89.91,89.91,0,0,1,69.28,183.2c7.32,16.92,25.38,28.54,46.07,27.82,26.48-.92,47.25-21.71,46.39-46.43A42.85,42.85,0,0,0,149.67,136.38Z"/><path class="cls-5" d="M80.17,173.93c-.3,2.11-2.13,2.6-4.13,2.31s-3.43-1.24-3.13-3.35,1.68-5.07,3.69-4.78S80.48,171.81,80.17,173.93Z"/><path class="cls-2" d="M77.25,176.77A7.11,7.11,0,0,1,76,176.7a4.74,4.74,0,0,1-2.68-1.12,3,3,0,0,1-.84-2.76c.28-2,1.56-5.12,3.8-5.19a1.85,1.85,0,0,1,.41,0,4.53,4.53,0,0,1,3,2.45,6.33,6.33,0,0,1,1,3.89A3.13,3.13,0,0,1,77.25,176.77Zm-1-8.22c-1.5,0-2.65,2.59-2.91,4.4a2.1,2.1,0,0,0,.56,2,3.9,3.9,0,0,0,2.17.87,6.29,6.29,0,0,0,1.12.07c1.5,0,2.31-.7,2.5-2a5.5,5.5,0,0,0-.87-3.3,3.79,3.79,0,0,0-2.32-2Z"/><path class="cls-5" d="M151.07,153.53c2.26.38,2.73,2.37,2.37,4.52s-1.43,3.66-3.7,3.27-5.41-1.95-5.05-4.11S148.8,153.14,151.07,153.53Z"/><path class="cls-2" d="M150.55,161.88a4,4,0,0,1-.89-.07c-2.53-.42-5.89-2.16-5.46-4.68.37-2.19,3.62-4.06,6.07-4.15a4.15,4.15,0,0,1,.88.06,3.19,3.19,0,0,1,2.55,1.89,5.62,5.62,0,0,1,.23,3.2C153.42,161.15,151.81,161.84,150.55,161.88Zm-.25-7.9c-2,.07-4.83,1.65-5.12,3.32s2.51,3.17,4.64,3.53q2.56.43,3.13-2.86a4.75,4.75,0,0,0-.17-2.64A2.17,2.17,0,0,0,151,154,3,3,0,0,0,150.3,154Z"/><path class="cls-5" d="M145.53,176.89c-.52,1.78-2.15,2-3.84,1.49s-2.79-1.49-2.28-3.27,2.07-4.15,3.76-3.66S146.05,175.11,145.53,176.89Z"/><path class="cls-2" d="M143.31,179a5.88,5.88,0,0,1-1.73-.25c-2.17-.63-3.07-2-2.55-3.76.44-1.52,1.81-3.95,3.61-4a2,2,0,0,1,.64.08c1.94.56,3.21,4,2.63,5.93A2.59,2.59,0,0,1,143.31,179Zm-.64-7.22c-1.17,0-2.4,1.82-2.87,3.44-.15.49-.58,2,2,2.76a4.49,4.49,0,0,0,1.47.21,1.8,1.8,0,0,0,1.86-1.42c.45-1.54-.61-4.51-2.09-4.94A1.2,1.2,0,0,0,142.67,171.79Z"/><path class="cls-5" d="M106.89,135.71c.33,2.65-1.73,3.83-4.24,4.14s-4.55-.38-4.87-3,.38-6.67,2.9-7S106.57,133.05,106.89,135.71Z"/><path class="cls-2" d="M101.88,140.49c-2.72.1-4.38-1.18-4.68-3.6-.36-2.95.46-7.27,3.41-7.63s6.51,3.53,6.86,6.38c.32,2.63-1.41,4.38-4.75,4.79Zm-1-10.09h-.17c-2,.25-2.7,3.84-2.4,6.34.22,1.81,1.36,2.66,3.49,2.59a6.81,6.81,0,0,0,.74-.07c1.87-.22,4-1,3.74-3.49S103,130.33,100.92,130.4Z"/><path class="cls-5" d="M106.59,194.51c1.86,2.5.46,4.89-1.91,6.66s-4.84,2.25-6.71-.25-3.47-7-1.09-8.77S104.72,192,106.59,194.51Z"/><path class="cls-2" d="M101.19,203.32a4.38,4.38,0,0,1-3.76-2c-2.07-2.79-3.74-7.65-1-9.72a5,5,0,0,1,2.85-.87c2.9-.1,6.33,1.38,7.81,3.37a4.38,4.38,0,0,1,.73,4.25,7.68,7.68,0,0,1-2.78,3.37A7.13,7.13,0,0,1,101.19,203.32Zm-1.83-11.24a3.67,3.67,0,0,0-2.08.61c-1.92,1.43-.52,5.46,1.24,7.82,1.44,1.94,3.33,1.92,5.75.12a6.52,6.52,0,0,0,2.32-2.75,3,3,0,0,0-.55-3C104.84,193.29,101.78,192,99.36,192.08Z"/><path class="cls-5" d="M135.25,198c-1,2.42-3.34,2.43-5.63,1.48s-3.7-2.52-2.69-5,3.56-5.5,5.85-4.55S136.25,195.59,135.25,198Z"/><path class="cls-2" d="M132.37,200.64a7.19,7.19,0,0,1-3-.63c-3-1.23-4-3.25-3-5.69.84-2,3-5,5.39-5.07a2.8,2.8,0,0,1,1.21.22c2.64,1.1,3.89,6.08,2.77,8.76A3.63,3.63,0,0,1,132.37,200.64Zm-.54-10.26c-1.62.06-3.5,2.27-4.38,4.38-.28.68-1.14,2.74,2.39,4.2a6.06,6.06,0,0,0,2.49.55,2.51,2.51,0,0,0,2.39-1.72c.87-2.1-.15-6.44-2.16-7.27A1.64,1.64,0,0,0,131.83,190.38Z"/><path class="cls-5" d="M139.07,139.55c-.28,1.41-1.52,1.66-2.85,1.4s-2.25-1-2-2.36,1.32-3.33,2.65-3.06S139.36,138.15,139.07,139.55Z"/><path class="cls-2" d="M137.22,141.35a4.51,4.51,0,0,1-1.06-.1c-1.71-.34-2.49-1.31-2.21-2.72s1.19-3.29,2.65-3.34a2.19,2.19,0,0,1,.36,0,3.1,3.1,0,0,1,1.91,1.75,4.26,4.26,0,0,1,.51,2.64A2.08,2.08,0,0,1,137.22,141.35Zm-.6-5.54c-.93,0-1.8,1.5-2.06,2.84-.08.39-.32,1.58,1.72,2a3.82,3.82,0,0,0,.92.09,1.46,1.46,0,0,0,1.57-1.24,3.69,3.69,0,0,0-.45-2.23,2.55,2.55,0,0,0-1.48-1.43A.86.86,0,0,0,136.62,135.81Z"/><path class="cls-2" d="M115.38,211.83C88.5,212.77,65.91,193.09,65,168s20.28-46.33,47.16-47.27,49.47,18.75,50.34,43.87S142.26,210.89,115.38,211.83Zm-3.12-89.52c-26,.9-46.45,21.36-45.61,45.6s22.68,43.21,48.67,42.31,46.45-21.37,45.61-45.6S138.25,121.4,112.26,122.31Z"/><path class="cls-6" d="M99,167.83a4.46,4.46,0,1,1-6.19-1.22A4.46,4.46,0,0,1,99,167.83Z"/><path class="cls-2" d="M100.48,160.15A4.15,4.15,0,1,1,94.72,159,4.15,4.15,0,0,1,100.48,160.15Z"/><path class="cls-6" d="M132.68,150.68a4.46,4.46,0,1,1-6.28-.51A4.47,4.47,0,0,1,132.68,150.68Z"/><path class="cls-2" d="M125.47,148.77a4.15,4.15,0,1,1-5.85-.48A4.15,4.15,0,0,1,125.47,148.77Z"/><path class="cls-7" d="M108.1,168.66a2.54,2.54,0,0,1,2.63-2.31c1.27.07,5,.87,6.5-3a2.58,2.58,0,0,1,3.25-1.35c3,1.43,3.65,8.84-.73,11.48C113.75,177.12,108.19,172.16,108.1,168.66Z"/><path class="cls-8" d="M119.66,167.44a20.53,20.53,0,0,0-4.35,3.92,22.3,22.3,0,0,0-1.84,2.47l-.33.56a7.8,7.8,0,0,0,6.61-.88c2.68-1.61,3.49-5,3-7.74A17.32,17.32,0,0,0,119.66,167.44Z"/><path class="cls-2" d="M115.75,175.34a8.42,8.42,0,0,1-6-2.32,6.58,6.58,0,0,1-2.24-4.34,3.12,3.12,0,0,1,3.24-2.91l.48,0a11.34,11.34,0,0,0,1.52.08,4,4,0,0,0,3.93-2.72,3.2,3.2,0,0,1,2.82-1.9,2.73,2.73,0,0,1,1.21.24c1.56.73,2.61,2.75,2.74,5.26s-.71,5.6-3.41,7.23A9,9,0,0,1,115.75,175.34Zm-5.19-8.41a2,2,0,0,0-1.88,1.72,5.45,5.45,0,0,0,1.87,3.53,7.2,7.2,0,0,0,5.16,2,7.58,7.58,0,0,0,3.74-1.17c2.27-1.36,3-4.08,2.86-6.18s-.94-3.74-2.08-4.28a1.5,1.5,0,0,0-.68-.13,2.07,2.07,0,0,0-1.79,1.18,5.13,5.13,0,0,1-5,3.44,13.21,13.21,0,0,1-1.67-.08l-.43,0A.66.66,0,0,0,110.56,166.93Z"/><path class="cls-9" d="M106.76,110.47s-4-13.71-6.33-20.62a49.33,49.33,0,1,0-16,11.73Z"/><path class="cls-2" d="M47.1,31.26l1.09.21L46,43.43l-1.09-.2-.2,1.09-1.09-.2-.2,1.09-10.88-2,.2-1.09-1.09-.2.2-1.09-1.08-.2,1-5.44,1.08.2L33,34.28l3.26.61L36.1,36l1.09.2-.61,3.26,2.18.41,1.81-9.8,1.09.21-.4,2.17,1.09.2.2-1.09,1.09.21.2-1.09-2.18-.4.2-1.09,5.44,1Z"/><path class="cls-2" d="M64.51,34.49l1.09.2-2.22,12-1.09-.2-.2,1.09L61,47.35l-.2,1.08-10.88-2,.2-1.09L49,45.13,49.24,44l-1.09-.2,2.22-12,1.08.2-.4,2.18,1.09.2.2-1.09,1.09.2.2-1.09-2.18-.4L51.66,31l5.44,1-.21,1.09,1.09.2-1.81,9.79,2.17.41,1.82-9.8,1.09.21.2-1.09,3.26.6Z"/><path class="cls-2" d="M81.92,37.72l1.09.2-.4,2.18-1.09-.2L81.32,41l-6.53-1.21-.2,1.09,6.52,1.21-.2,1.09,1.09.2-1.21,6.53-1.09-.2-.2,1.09-1.09-.2-.2,1.08-12-2.22.2-1.08-1.09-.21L66,44.89l1.09.2.2-1.09L76,45.62l.21-1.09-8.71-1.61.2-1.09-1.08-.2,1-5.45,1.09.21-.2,1.08,1.09.21.2-1.09,1.09.2L71,35.7,70,35.5l.2-1.09,12,2.22Z"/><path class="cls-2" d="M85.87,40.7l-1.09-.2.41-2.18,1.08.21ZM99.33,41l1.09.2-.4,2.18-1.09-.21-.2,1.09-3.27-.6L93.65,53.4l-1.09-.2-.2,1.09L88,53.48l.21-1.09-1.09-.2,1.81-9.79-3.26-.61.2-1.09,1.09.2.2-1.08,1.09.2.2-1.09-2.18-.4.21-1.09,13,2.42Z"/><path class="cls-10" d="M43.81,49l1.09.2-2,10.89-1.09-.21L41.59,61l-1.09-.2-.2,1.09-10.88-2,.2-1.09-1.09-.2.2-1.09-1.08-.2,2-10.88,1.09.2-.2,1.09,1.09.2.2-1.09,1.09.21.2-1.09L32,45.72l.2-1.09,10.88,2-.2,1.09,1.09.2Zm-4.88,8.1,1.41-7.61-3.26-.61-1.41,7.62Z"/><path class="cls-10" d="M61.42,51.16l1.09.2L60.09,64.42,59,64.22l-.2,1.09-3.27-.61.21-1.08-1.09-.21.6-3.26L54.16,60l.21-1.09-1.09-.2L52.47,63l-1.09-.2-.2,1.09-5.44-1,.2-1.09-1.09-.2,2.43-13.06,1.08.2L48,50.92l1.09.2.2-1.09,1.09.2.2-1.08-2.18-.41.2-1.09,5.45,1-.21,1.09,1.09.2-.8,4.35,1.08.21L55,55.59l1.09.21,1-5.44,1.09.2.2-1.09,3.26.6Z"/><path class="cls-10" d="M78.83,54.39l1.09.2-.2,1.09-1.09-.2-.2,1.09L71.9,55.36l-.41,2.17L78,58.74l-.2,1.09,1.09.2-.2,1.09-1.09-.2L77.42,62,70.89,60.8,70.49,63,77,64.18l-.2,1.09,1.09.2-.4,2.18-1.09-.2-.2,1.09L63.15,66.12l.2-1.09-1.09-.2,2.42-13.06,1.09.2-.4,2.18,1.09.2.2-1.09,1.09.2.2-1.09L65.77,52l.2-1.09L79,53.3Z"/><path class="cls-10" d="M42,64.81l1.09.2L40.67,78.07l-1.08-.2L39.38,79l-3.26-.6.2-1.09-1.09-.2.61-3.26-1.09-.21-.2,1.09-1.09-.2.2-1.09-1.08-.2L32,76.45l-1.09-.2-.2,1.09-5.44-1,.2-1.09L24.35,75,26.77,62l1.09.21-.4,2.17,1.09.2.2-1.08,1.09.2.2-1.09-2.18-.4.2-1.09,5.44,1-.2,1.08,1.09.21-.81,4.35,1.09.2L34.47,69l1.09.2.2-1.09,1.09.2.8-4.35,1.09.2L39,63.12l3.26.6Z"/><path class="cls-10" d="M59.22,69.12l1.08.21-2,10.88L57.2,80,57,81.09l-1.09-.2L55.71,82,44.83,80l.2-1.08-1.09-.21.2-1.08-1.09-.21,2-10.88,1.09.2L46,67.79,47,68l.21-1.08,1.09.2.2-1.09-1.09-.2.2-1.09,10.88,2-.2,1.09,1.09.2Zm-4.88,8.1,1.41-7.61L52.49,69l-1.42,7.62Z"/><path class="cls-10" d="M76.63,72.35l1.08.2-.8,4.36-1.09-.2-.2,1.08-1.09-.2-.2,1.09,1.09.2L75.21,80l1.09.2-.81,4.35-1.08-.2-.2,1.09L72,85l.2-1.09-1.09-.2.2-1.09-1.08-.2.2-1.09-1.09-.2.2-1.09-1.09-.2-.6,3.26-1.09-.2L66.59,84l-5.44-1,.2-1.09-1.09-.2,2.42-13.06,1.09.2L63.37,71l1.08.2.21-1.09,1.09.21.2-1.09-2.18-.41.2-1.08,12,2.21-.2,1.09,1.09.2Zm-3.47.49-3.26-.61-.41,2.18,3.27.6Z"/><path class="cls-10" d="M94.24,74.49l1.09.2-.21,1.09L94,75.58l-.21,1.09-6.52-1.21-.41,2.18,6.53,1.2-.2,1.09,1.09.21-.2,1.08L93,81l-.2,1.09L86.3,80.9l-.41,2.18,6.53,1.21-.2,1.08,1.09.21-.41,2.17-1.08-.2-.2,1.09L78.56,86.22l.2-1.09-1.09-.2,2.42-13.06,1.09.2-.4,2.18,1.08.2.21-1.09,1.09.2.2-1.08-2.18-.41.2-1.09L94.44,73.4Z"/></g></g></svg>