<svg xmlns="http://www.w3.org/2000/svg" xmlns:xlink="http://www.w3.org/1999/xlink" viewBox="0 0 200.59 121.03"><defs><style>.cls-1{fill:url(#linear-gradient);}.cls-2{fill:url(#linear-gradient-2);}.cls-3{fill:url(#linear-gradient-3);}.cls-4{fill:url(#linear-gradient-4);}</style><linearGradient id="linear-gradient" x1="30.15" y1="113.97" x2="190.48" y2="9.85" gradientUnits="userSpaceOnUse"><stop offset="0" stop-color="#ff33c5"/><stop offset="1" stop-color="#f28e1a"/></linearGradient><linearGradient id="linear-gradient-2" x1="14.33" y1="89.62" x2="88.74" y2="41.3" xlink:href="#linear-gradient"/><linearGradient id="linear-gradient-3" x1="86.2" y1="74.84" x2="123.29" y2="50.76" xlink:href="#linear-gradient"/><linearGradient id="linear-gradient-4" x1="38" y1="39.24" x2="48.94" y2="32.13" xlink:href="#linear-gradient"/></defs><g id="Layer_2" data-name="Layer 2"><g id="Warstwa_1" data-name="Warstwa 1"><path class="cls-1" d="M84.91,121a92.75,92.75,0,0,1-22.79-2.83,92.35,92.35,0,0,1-60-48.45,20.84,20.84,0,0,1,0-18.45,92.41,92.41,0,0,1,162.21-6.08c.4-.57.81-1.17,1.2-1.75,4.7-6.85,12.55-18.31,19.4-23.19A9.88,9.88,0,0,1,199.85,32a80.41,80.41,0,0,0-5.38,29.24,80.41,80.41,0,0,0,5.38,29.24h0A9.88,9.88,0,0,1,185,102.21c-6.7-4.78-14.5-15.68-19.66-22.89-.55-.76-1.12-1.57-1.66-2.3A92.45,92.45,0,0,1,84.91,121Zm0-115A86.29,86.29,0,0,0,7.52,54a14.87,14.87,0,0,0,0,13.11,86.32,86.32,0,0,0,56.07,45.3,86.52,86.52,0,0,0,96.95-42l.8-1.44,1.71-.14c2-.1,2.6.69,7.12,7,4.63,6.47,12.37,17.3,18.27,21.5a3.72,3.72,0,0,0,4.61-.11,3.8,3.8,0,0,0,1.22-4.53h0a86.29,86.29,0,0,1-5.8-31.44,86.42,86.42,0,0,1,5.8-31.45,3.79,3.79,0,0,0-1.22-4.53,3.72,3.72,0,0,0-4.6-.11c-6,4.27-13.47,15.18-17.94,21.7-4,5.78-4.65,6.83-6.71,6.71l-1.69-.09L161.26,52A86.24,86.24,0,0,0,84.91,6Z"/><path class="cls-2" d="M64.3,118.75l-2.18-.55a92.35,92.35,0,0,1-60-48.45,20.84,20.84,0,0,1,0-18.45A92.32,92.32,0,0,1,61.35,3l2.17-.57,1.16,1.92A109.79,109.79,0,0,1,80.49,61.25a109.81,109.81,0,0,1-15,55.56ZM60.7,9.44A86.42,86.42,0,0,0,7.52,54a14.87,14.87,0,0,0,0,13.11A86.32,86.32,0,0,0,61.4,111.79,103.89,103.89,0,0,0,74.49,61.25,103.94,103.94,0,0,0,60.7,9.44Z"/><path class="cls-3" d="M112.54,83.84c-4.77,0-17-4.24-24.27-6.91a3,3,0,0,1,2.07-5.63c8,2.94,17.56,6,21.08,6.5.75-2.39,1.63-8.75,1.7-17.2.09-10.85-1.21-16.51-2.07-17.63-2-1-11.73,3.3-20.06,9a3,3,0,1,1-3.37-5A103.57,103.57,0,0,1,97.91,40.9c8.38-4.26,13.74-5.1,16.87-2.64,1.08.85,4,3.11,4.31,18.52.19,8-.45,16.65-1.58,21.4-.59,2.48-1.53,5.09-4,5.58A5.63,5.63,0,0,1,112.54,83.84Z"/><circle class="cls-4" cx="43.47" cy="35.69" r="6.52"/></g></g></svg>