<svg xmlns="http://www.w3.org/2000/svg" xmlns:xlink="http://www.w3.org/1999/xlink" viewBox="0 0 150.38 147.86"><defs><style>.cls-1{fill:url(#linear-gradient);}</style><linearGradient id="linear-gradient" x1="26.9" y1="83.67" x2="150.84" y2="3.18" gradientUnits="userSpaceOnUse"><stop offset="0" stop-color="#ff33c5"/><stop offset="1" stop-color="#f28e1a"/></linearGradient></defs><g id="Layer_2" data-name="Layer 2"><g id="Warstwa_1" data-name="Warstwa 1"><path class="cls-1" d="M0,10.11c0,.13,0,.26,0,.4s.06.21.09.32.06.22.1.33.11.23.17.35a2.26,2.26,0,0,0,.11.22C27,54.42,45.74,92,67.23,145.66l.09.19a1.74,1.74,0,0,0,.1.19,2.9,2.9,0,0,0,.27.41l.06.1a3,3,0,0,0,.43.44l.12.1.38.26.18.1a3.16,3.16,0,0,0,.5.22l.06,0h0l.41.1.11,0a4.38,4.38,0,0,0,.52,0,3.15,3.15,0,0,0,.61-.06l.17,0a3.06,3.06,0,0,0,.43-.13l.09,0,.1-.06a3.17,3.17,0,0,0,.41-.21l.17-.1a4.22,4.22,0,0,0,.46-.38,0,0,0,0,0,0,0,2.68,2.68,0,0,0,.4-.48.86.86,0,0,0,.1-.16,2.82,2.82,0,0,0,.21-.38l.09-.22c0-.06.05-.12.07-.19A429.36,429.36,0,0,1,105,71.13a38.66,38.66,0,0,0,12.6,2.28c9.5,0,17.79-4.22,23.91-12.48,8.74-11.81,7.82-26.85,7.08-38.93-.44-7.08-.85-13.78,1.11-16.42a3.5,3.5,0,0,0-5.63-4.16c-1.95,2.64-8.47,4.2-15.38,5.85-11.77,2.82-26.42,6.33-35.16,18.14-9.8,13.23-8,28.76,4.78,42.61l.28.25C93,78.68,87.9,89.24,83.22,100.06,64.43,52.73,39,12.59,36.07,8a3.5,3.5,0,0,0-3-1.61H3.5l-.24,0-.38,0a3.37,3.37,0,0,0-.34.09l-.32.1-.36.17a2.12,2.12,0,0,0-.21.11l0,0-.31.25a2.11,2.11,0,0,0-.23.19c-.08.08-.15.17-.23.26a2.52,2.52,0,0,0-.21.25l-.17.3c0,.1-.11.19-.15.29a1.73,1.73,0,0,0-.11.32,2.07,2.07,0,0,0-.1.33,1.35,1.35,0,0,0,0,.29,2.58,2.58,0,0,0,0,.4s0,0,0,.06S0,10,0,10.11ZM99.14,29.57c7.23-9.75,20-12.8,31.17-15.49a103.78,103.78,0,0,0,11-3,105,105,0,0,0,.31,11.38C142.3,34,143.1,47,135.87,56.77c-8.17,11-19.21,10.67-27.46,8.11,5.86-10.5,12.22-20.88,19.17-31.27a3.5,3.5,0,1,0-5.82-3.89C114.64,40.36,108.12,51,102.12,61.78,96.24,54.86,89.47,42.64,99.14,29.57Zm-20,79.34c.06.15.13.29.2.43-3.28,8.1-6.35,16.36-9.21,24.84C50.84,86.91,33.34,51.9,9.77,13.38H31.2C37.1,22.75,61.79,63.09,79.15,108.91Z"/></g></g></svg>