<svg xmlns="http://www.w3.org/2000/svg" viewBox="0 0 200.59 121.03"><defs><style>.cls-1,.cls-2{fill:none;stroke:#000;stroke-miterlimit:10;stroke-width:6px;}.cls-2{stroke-linecap:round;}</style></defs><g id="Layer_2" data-name="Layer 2"><g id="Warstwa_1" data-name="Warstwa 1"><path class="cls-1" d="M197.07,91.59a6.88,6.88,0,0,1-10.36,8.18c-9.68-6.9-22.94-29-23.53-27.9A89.4,89.4,0,0,1,4.85,68.41a17.73,17.73,0,0,1,0-15.78,89.41,89.41,0,0,1,159.07-2.09c.57,1.07,13.08-20.9,22.8-27.82a6.88,6.88,0,0,1,10.35,8.18,82.84,82.84,0,0,0-5.59,30.35A82.75,82.75,0,0,0,197.07,91.59Z"/><path class="cls-1" d="M77.5,61.25a106.37,106.37,0,0,1-14.63,54,89.58,89.58,0,0,1-58-46.88,17.73,17.73,0,0,1,0-15.78A89.55,89.55,0,0,1,62.12,5.94,106.55,106.55,0,0,1,77.5,61.25Z"/><path class="cls-2" d="M89.32,49.44S108,36.75,112.94,40.62s3.52,39.49,0,40.2-23.62-6.7-23.62-6.7"/><circle cx="43.48" cy="35.69" r="6.52"/></g></g></svg>